<svg xmlns="http://www.w3.org/2000/svg" xmlns:xlink="http://www.w3.org/1999/xlink" viewBox="-7.22 -4.13 1000 572.2"><path fill="#239f40" d="M-7.22-4.13h1000v572.2h-1000z"/><path fill="#da0000" d="M-7.22 281.97h1000v286.1h-1000z"/><path fill="#fff" d="M-7.22 186.57h1000v190.75h-1000z"/><g transform="translate(-7.22 155.47)scale(4.4445)"><g id="e"><g id="c" fill="none" stroke="#fff"><path id="b" d="M3 .5h13M3.5 5V2.5h4v2h4v-2H9m-4 2h1m10 0h-2.5v-2h4m0-2.5v4.5h4V0m-2 0v4.5"/><path id="a" stroke-width="2" d="M3 7h9m1 0h9"/><use xlink:href="#a" width="100%" height="100%" y="42.91"/><use xlink:href="#b" width="100%" height="100%" y="51.91"/></g><g id="d"><use xlink:href="#c" width="100%" height="100%" x="20"/><use xlink:href="#c" width="100%" height="100%" x="40"/><use xlink:href="#c" width="100%" height="100%" x="60"/></g></g><use xlink:href="#d" width="100%" height="100%" x="60"/><use xlink:href="#e" width="100%" height="100%" x="140"/></g><g fill="#da0000" transform="translate(492.78 281.97)scale(69.285)"><g id="f"><path d="M-.55.84A.91.91 0 0 0 .33-.72 1 1 0 0 1-.55.84"/><path d="M.62.66a.76.76 0 0 0-.2-1.4 1 1 0 0 1 .2 1.4M0 1l-.05-1L0-.79a.3.3 0 0 0 .12.1v.59L.08.9zM-.02-.85 0-.83a.14.14 0 0 0 .25-.14.14.14 0 0 1-.25.04"/></g><use xlink:href="#f" width="100%" height="100%" transform="scale(-1 1)"/></g></svg>