<svg xmlns="http://www.w3.org/2000/svg" xmlns:xlink="http://www.w3.org/1999/xlink" viewBox="0 0 895 600"><path d="M0 0h895v600H0z" style="fill:#fff;fill-opacity:1;fill-rule:evenodd;stroke:none;stroke-width:1px;marker:none;visibility:visible;display:inline;overflow:visible"/><path d="M418.02 0v270.05H0v59.9h418.02V600h58.96V329.95H895v-59.9H476.98V0z" style="fill:#d81921;fill-opacity:1;fill-rule:evenodd;stroke:none;stroke-width:1px;marker:none;visibility:visible;display:inline;overflow:visible"/><g id="a"><path d="M-358.64 251.26c20.14 9.35 25.06 21.66 33.96 31.48s22.15 30.93 47.95 23.8c.8-5.3 4.14-19.88 13.87-26.48 6-3.67 13.34-8.92 14.67-17.85 10.68 2.68 37.4 4.82 38.7-9.37.44-4.9-3.75-12.43.73-17.6 1.01.03 6.69.14 8.17-.56 1.56-1.84.02-8.55-1.1-10.04v-.06c2.67-.25 9.54-6.55 1.1-11.01-2.24-2.63-1.85-4.78-1.84-7.2 1.4.02 4.83-.02 5.33-.05 8.9-.04 7.76-5.8 5.2-11.94-1.78-4.01-11.81-23.2-13.6-25.88-1.77-2.68-1.77-4.02-.44-6.7 1.34-2.67.9-7.13 0-10.26-.89-3.12-2.66-8.03-1.33-9.37s.89-5.8.44-6.7c-.44-.88-.44-3.12-.44-4 0-.9-.44-3.13-1.78-4.02-1.33-.9-2.22-4.02-1.33-4.91s-.45-7.14-1.78-7.59c-1.34-.45-4-1.34-5.34-4.46.16-4.4-3.3-9.41-5.34-11.6-1.33-1.34-.89-5.8-.89-5.8l-3.9.09c-.43-.15-3.66-4.56-6.77-5.45s-10.23-4.46-10.23-4.46l-4.9-5.36-4.44 2.23s-3.56-1.33-6.67-1.78-9.78-2.68-12-6.25-1.79 4.25-1.86 4.68c-.28.07-3.93-2-10.16-1.55-6.22.44-13.34 3.12-15.56 2.23s-4.45 1.78-4.45 1.78-4.45 2.68-8 2.68h-6.68l-.44 3.12s-6.67 2.3-9.78 3.64c-3.12 1.34-5.79 3.06-9.79 3.5-4 .45-5.34 1.79-5.34 1.79l1.78 3.57s-4.8.98-6.22 5.8c-2.67 3.57-6.23 9.37-8.9 9.82a11 11 0 0 0-4.45 1.78l3.56 4.46s-.89 1.34-2.67 3.13-5.33 4.9-5.33 4.9l2.22 4.02s0 .9-.44 3.13c-.45 2.23-.45 6.24-2.67 7.14-2.23.89-2.23 3.57-2.23 3.57s-.44.44 2.23 1.33 4.45.9 3.11 2.68c-1.33 1.79-3.56 4.91-3.56 4.91s2.23 1.34 4.45 1.79 4.45.44 4.45.44-1.78 8.48-3.56 9.82 2.67 2.23 5.34.9c2.67-1.35 1 4-.78 4.45s.64 1.07 2.73 1.1c1.78-.45 4.07-.14 3.05 2.5-1.33 3.57-2.78 5.33.78 7.11s6.78 9.82 5 12.5-2.78 6.7-2.78 6.7l8.45.44s.58 1.34-1.64 3.57c-2.23 2.23-4.45 4.77-4.14 5.4-.07.96 6.7.57 6.63 1.54-5.75 28.52-19.41 36.52-19.43 38.02z" style="fill:#000;fill-rule:evenodd;stroke:#000;stroke-width:1.26046431" transform="matrix(.7689 0 0 .76825 440.76 -9)"/><path d="M-216.94 114.63c2.97 2.23 5.56 5.95 2.97 8.18-3.34 2.97-4.82 4.08-4.82 4.08s5.93-1.85 7.04.38 2.4 5.62 0 6.32a240 240 0 0 1-5.93 3.34s9.27-1.11 7.04-.74c1.11 2.97 2.23 8.18-3.7 10.4-5.93 2.24-24.46 8.93-27.79 10.79s-10.74 2.97-14.45 2.97-17.41.74-15.19.74l8.15 2.24c1.4.13-16.86 6.22-19.54 5.66-1.44-3.34-20.1-20.9-30.48.66-1.1 4.83 2.6 12.26 6.3 13.75s5.56 3.35 7.04 7.43c1.48 4.1 5.28 11.39 9.36 10.79 5.6-3.68 8.06-3.35 5.46-.38-2.87 4.1-9.58 4.28-12.96-.74-2.83-3.49-5.38-12.5-11.12-14.87-2.96-1.12-6.67-8.18-6.67-8.18s-5.19-.37-7.4 1.86c-2.23 2.23-7.79 2.23-11.12 1.86-3.34-.37-8.94-1.63-7.09-1.63s-5.14-.23-7.36.14-1.48-5.57 2.22-8.55c3.7-2.97 14.08-7.8 16.3-10.78s18.16-11.9 22.6-12.27 10-3.34 10-3.34-8.33-.14-4.26-.88c4.08-.75 12.05-3.95 16.12-5.44s7.41-1.49 11.86-1.49 33.96-7.25 41.32-11.76c5.56-1.86-26.36 7.44-30.07 7.81-6.3.93-8.29-.32 2.08-5.34 4.45-2.6 24.25-13.02 40.1-17.37 1.62 1.62 1.03 2.13 4 4.36z" style="fill:#fff;fill-rule:evenodd;stroke:#000;stroke-width:.15755804px" transform="matrix(.7689 0 0 .76825 440.76 -9)"/><path d="M-297.84 175.83c-.14.01-.74.12-1.12.52a7 7 0 0 0-1 1.58c-.16.7-.37 1.3-.25 1.97.24.66.56 1.13 1 1.57.5.61.85.93 1.37 1.31.58.28 1.14.82 1.63 1.05.23.32.84.56 1.12.92.34.45.6.67.63 1.32.21.63.29 1.42.37 2.1.13.74.3 1.44.38 2.1.31.56.65.85 1.37 1.05q.9.14 1.88.13c.37-.36 1-.76 1.37-1.18v-1.05" style="fill:none;stroke:#fff;stroke-width:3.18875313px;stroke-linecap:round" transform="matrix(.7689 0 0 .76825 440.76 -9)"/><path d="M-287.42 172.9c-3.2-5.16-23.22-14.65-18.35 3.76 1.11 1.96-.97 2.8-1.53 1.4-5.14-21.76 16.96-12.7 20.44-6.98 1.39 2.37-.56 1.96-.56 1.82z" style="fill:#fff;fill-rule:evenodd;stroke:#fff;stroke-width:1.26046431px" transform="matrix(.7689 0 0 .76825 440.76 -9)"/><path d="M-215.26 141.51c-7.51-.14-15.43.28-21.55 4.18-6.12 3.91-11.54 5.03-18.08 5.03s-9.87.14-9.87.14" style="fill:none;stroke:#000;stroke-width:2.52092862px;stroke-linecap:round" transform="matrix(.7689 0 0 .76825 440.76 -9)"/><path d="M-307.66 152.82c-12.54 4.87-14.77 6.3-20.06 9.74-5.3 3.44-7.26 4.02-11.72 6.88-3.32 2-5.3 4.3-5.3 4.3-2.85 2.3 12.4-8.88 22.3-6.6 3.63 0 4.19 0 7.54-3.72a34 34 0 0 1 12.82-9.17c5.58-2.3 15.33-6.02 15.33-6.02" style="fill:none;stroke:#000;stroke-width:2.49044442px" transform="matrix(.7689 0 0 .76825 440.76 -9)"/><path d="M-321.6 174.6c-.76 0-3.92-.12-5.14.29-1.06.14-2.76.28-3.71.57-1.62.2-3.1.53-4.86.57-1.88.02-2.55.6-4.28.86-.55.68-1.57 1.5-2.29 2.01" style="fill:none;stroke:#000;stroke-width:2.20581269px;stroke-linecap:round" transform="matrix(.7689 0 0 .76825 440.76 -9)"/><path d="M-217.94 164.04c-4.61 6.37-11.67 9.87-19.39 11.53.2 1.87 9.37 1.99 12.79 6.33" style="fill:none;stroke:#fff;stroke-width:2.83604479px" transform="matrix(.7689 0 0 .76825 440.76 -9)"/><path d="M-390.27 90.62c-.14 1.63-.65 8.73.05 8.81 4 .58 6.76 1.25 10.19 4.69s11.27 9.3 15.72 1.26c2.29-4.6-3.28-6.74-6.14-6.74-2.8-.1-7.22-2.27-11.79-3.42-4.57-1.14-6.42-4.09-7-3.52zm-18.01 17.56c-.62-.35-3.59-4.32-2.05-9.17 2.22-3.34-10.07 3.6-7.48 7.32 3.29 2.57 9.79 2.54 9.53 1.85z" style="fill:#fff;stroke:#000;stroke-width:2.52092862px;stroke-linecap:butt;stroke-linejoin:miter" transform="matrix(.7689 0 0 .76825 440.76 -9)"/><path d="M-379.01 92.66c.05-.76.14-7.54.03-9.04-2.3-.34-9.1-1.33-10.58.9-5.27 7.99 10.08 11.97 10.45 10.85zm12.39 16.02-9.63 33.46s-5.44 23.75 11.12 30.1c5.18.38 7.04-.36 7.04-.36l-1.49 8.17c-7.34 7.6-12.08 5.81-18.38 3.2s-6.55-2.8-9.89-4.66c-3.33-1.86-7.93-12.33-8.44-15.31-1.43-7.7-6.26-22.83-20.75-54.97 2.62-.23 19.66 1.5 20.81 1.5.57.92 3.26 5.31 7.38 7.05 4.54 1.86 11.07-3.5 4.45-7.8-3.23-2.08-13.97.36-13.77-5.27.27-4.88 7.47-4.4 10.44-4.03s7.04 3.72 8.89 5.57c4.15 4.17 10 4.84 12.22 3.35z" style="fill:#fff;stroke:#000;stroke-width:2.52092862px;stroke-linecap:butt;stroke-linejoin:miter" transform="matrix(.7689 0 0 .76825 440.76 -9)"/><path d="M-351.8 188.23a42 42 0 0 0-5.55 14.13c-1.11 5.95-4.32 14.27-12.6 16.35-6.67 1.86-12.6 4.84-14.08 10.04s-2.54 11.85-2.54 11.73l-10.31-14.64c.11-1.96.2-6.73.2-12.3.1-8.11 6.1-10.1 12.02-12.32s12.58-5 14.43-8.35 6.58-9.1 9.17-11.33c2.6-2.23 9.26 6.7 9.26 6.7z" style="fill:#fff;stroke:#000;stroke-width:2.52092862px;stroke-linecap:butt;stroke-linejoin:miter" transform="matrix(.7689 0 0 .76825 440.76 -9)"/><path d="M-362.7 257.24c-5.72 10.33-7.03 23.6-9.39 33.49-4.08-7.8-10.45-13.34-17.15-17.71-.4-7.76-2.35-18.46-4.58-21.81-10.73-15.7-3.18-24.69-3.18-24.69 10.73 12.64 11.1 21.69 34.29 30.7l.02.02z" style="fill:#fff;stroke:#000;stroke-width:2.52092862px" transform="matrix(.7689 0 0 .76825 440.76 -9)"/><path d="M-352.49 289.18c.3 2.56-3.12 11.48-8.91 11.88-5.69.39-8.97-4-10.01-9.13l2.85-17.23z" style="fill:#fff;stroke:#000;stroke-width:2.52092862px" transform="matrix(.7689 0 0 .76825 440.76 -9)"/><path d="M-352.45 174.89c1.14-3.15-.57-3.15-3.71-1.72-5.15 3.15-1.43 11.18 4.28 12.9 3.14 1.43 4.86-2.3.29-4.02-4.29-1.14-.86-7.45-.86-7.16h-.29z" style="fill:#fff;fill-rule:evenodd;stroke:#000;stroke-width:1.26046431px" transform="matrix(.7689 0 0 .76825 440.76 -9)"/><path d="M-389.59 223.94v.39c0-1.05.02-.52-.28 1.55 0 2.1-.16 3.87-.29 5.83 0 1.63.2 2.8.29 4.28m3.14-10.11v.7c0-1.3.04-.93-.29 1.07-.11 2-.51 3.05-.57 4.97 0 1.96.24 3.47.29 5.33m2 30.67h-.29c.08.27 0 1.8 0 2.83 0 1.54.03 3.05.29 4.05m3.14-5.45v.57-.57.57-.57c-.06 2.12-.28 3.29-.28 5.45 0 .66-.13 1.16.28 1.43m2.86-5.16c-.12 2.3-.5 3.82-.57 6.2 0 1.18.23 1.32.28 2.4m3.72-6.85v.36c0-.98.01-.48-.29 1.45-.05 1.78-.29 2.74-.29 4.7.06 1.9.47 2.69.58 4.35m2.57-9.74c0 .5-.16 2.5-.29 3.72v4.02c.16 1.33.45 2.77.86 3.72v.86m-19.71-62.39c-.08.54-.5 2.6 0 3.91 0 1.17.13 1.77.28 2.61" style="fill:#fff;stroke:#000;stroke-width:1.57558048px" transform="matrix(.7689 0 0 .76825 440.76 -9)"/><path d="M-359.46 175c-3.83.8-13.17 0-16.9-2.76l-3.74-2.76m20.63 7.42c-3.66 1.38-13 2.07-17.13-.06l-4.12-2.14" style="fill:#fff;stroke:#000;stroke-width:1.26046431" transform="matrix(.7689 0 0 .76825 440.76 -9)"/><path d="M-359.16 181.91c-1.97 2.37-3.34 3.55-3.93 6.7l-.6 3.16m6.89-8.67c-2.36 3.35-3.93 4.53-4.72 7.89l-.79 3.35" style="fill:#fff;stroke:#000;stroke-width:1.26046431px" transform="matrix(.7689 0 0 .76825 440.76 -9)"/><path d="M-354.84 185.26c-.98 5.13-4.91 14.8-7.86 17.96l-2.95 3.15" style="fill:#fff;stroke:#000;stroke-width:1.26046431" transform="matrix(.7689 0 0 .76825 440.76 -9)"/><path d="M-369.58 294.22c1.99-.25 5.84-3.47 6.71-4.62.87-1.16.93-1.64.93-1.64" style="fill:#fff;stroke:#000;stroke-width:1.50726712px" transform="matrix(.7689 0 0 .76825 440.76 -9)"/><path d="M-368.2 296.84c2.14-.52 6.31-4.05 7.25-5.24s1.13-1.5 1.13-1.5" style="fill:#fff;stroke:#000;stroke-width:1.50713217px" transform="matrix(.7689 0 0 .76825 440.76 -9)"/><path d="M-367.03 299.24c2.27-.25 6.95-3.8 8.05-5.1l1.1-1.29" style="fill:#fff;stroke:#000;stroke-width:1.70484364px" transform="matrix(.7689 0 0 .76825 440.76 -9)"/><path d="M-395.17 120.5c.29 2.4.43 7.11-.43 10.09l-.87 2.97m-5.64-20.6c1.66.58 4.12 1.89 4.91 2.98l.8 1.08" style="fill:#fff;stroke:#000;stroke-width:1.26046431px" transform="matrix(.7689 0 0 .76825 440.76 -9)"/><path d="M-382.05 115.1c-3.58 6.32-2.47 26.96-1.73 29.31l.75 2.35" style="fill:#fff;stroke:#000;stroke-width:1.65765059px" transform="matrix(.7689 0 0 .76825 440.76 -9)"/><path d="M-370.37 102.3c1.48.5 4.52 2.92 4.77 4.25" style="fill:#fff;stroke:#000;stroke-width:1.26046431px" transform="matrix(.7689 0 0 .76825 440.76 -9)"/><path d="M-372.73 104.03c1.48.5 4.52 2.91 4.77 4.25" style="fill:#fff;stroke:#000;stroke-width:1.26046431" transform="matrix(.7689 0 0 .76825 440.76 -9)"/><path d="M-224.65 170.37c2.92-.16 3.16 8.34-.6 8.14" style="fill:none;stroke:#fff;stroke-width:1.82767344" transform="matrix(.7689 0 0 .76825 440.76 -9)"/><path d="m-225.06 170.54.1 7.12" style="fill:none;stroke:#fff;stroke-width:4.50211143" transform="matrix(.7689 0 0 .76825 440.76 -9)"/><path d="M-225.26 170.37c-2.92-.16-3.16 8.34.6 8.14" style="fill:none;stroke:#fff;stroke-width:1.82767344" transform="matrix(.7689 0 0 .76825 440.76 -9)"/></g><use xlink:href="#a" width="895" height="600" transform="translate(0 326.05)"/><use xlink:href="#a" width="895" height="600" transform="translate(475.02)"/><use xlink:href="#a" width="895" height="600" transform="translate(475.02 326.05)"/></svg>